<svg id="Layer_1" data-name="Layer 1" xmlns="http://www.w3.org/2000/svg" xmlns:xlink="http://www.w3.org/1999/xlink" viewBox="0 0 1020.88 538.67"><defs><style>.cls-1{fill:url(#linear-gradient);}.cls-2{fill:#fff;}</style><linearGradient id="linear-gradient" y1="269.34" x2="1020.88" y2="269.34" gradientUnits="userSpaceOnUse"><stop offset="0" stop-color="#4199ae"/><stop offset="1" stop-color="#57bcbc"/></linearGradient></defs><rect class="cls-1" width="1020.88" height="538.67"/><path class="cls-2" d="M428.89,126.69c1.67-.14,3.35-.4,5-.4q52.15,0,104.31,0c14.48,0,24.5,7.67,30.73,19.56,7.41,14.11,4.84,33.43-10.07,44.16-3.25,2.34-3,3.51.11,6,12.55,10,16.11,21.83,12.32,37.88-3.17,13.4-13.1,20.86-25.55,25.31a13.78,13.78,0,0,1-4.6.43q-49.63.09-99.25.18c-2.46,0-3-1-3-3.12a15.27,15.27,0,0,0,0-2.53c-.5-3.49.89-4.48,4.43-4.46q45,.21,90,0c4.18,0,8.43.52,12.49-1.14,9-3.68,15-10.09,16.59-19.67,2-12-2.56-21.55-12.94-27.85-4-2.44-8.82-3.19-13.72-3.18q-46,.16-92.07,0c-1.52,0-4.42.43-4.45-1-.06-2.74-.86-5.66.16-8.29.34-.92,2.54-.62,3.86-.62,30.55,0,61.11-.28,91.65.08,13,.16,22.91-7,27.25-18.8,3-8.22-1.42-21.86-8.7-27.55a26.28,26.28,0,0,0-17.13-5.61c-32.1.14-64.2-.06-96.3.19-4.57,0-7.23-1.23-8.75-5.38A18,18,0,0,0,428.89,126.69Z"/><path class="cls-2" d="M428.89,126.68c.44.32.4.69.11,1.08q-16.41,15.35-32.83,30.66Q375,178.09,353.68,197.66c-13.77,12.62-27.93,24.82-41.16,38-3.42,3.41-7.18,6.48-10.76,9.75-.86.79-2.35,1.53-1.76,2.89.49,1.15,2,.65,3.06.65q16.31.08,32.61.08h76.1c5.67,0,6.75-.09,6.13,9.25a2.38,2.38,0,0,1-2.31,1.44c-1.25.09-2.5.1-3.76.1q-67.51,0-135,0c-1.47,0-5.91.29-5-1,21.59-20.7,43.79-40.37,65.6-60.46s43.7-40.34,65.94-60.88a22.81,22.81,0,0,0-6.74-.87q-53.1,0-106.19,0c-5.57,0-6.5-.12-5.91-9.07.59-1.39,1.68-1.27,2.76-1.29,2.64,0,5.29,0,7.94,0q64.38,0,128.77,0C425.58,126.33,427.23,126.56,428.89,126.68Z"/><path class="cls-2" d="M729.36,126.33c5.14,0,9.33-.38,13.43.11,1.41.17,4.67,3.6,6.83,5.56,18.78,17.07,37.4,34.31,56.06,51.5,1.92,1.76,3.4,2.52,5.87.19,16.22-15.26,32.63-30.34,49-45.46,3.65-3.38,7.4-6.66,11.07-10a6.68,6.68,0,0,1,5.25-2c3.32.2,6.65,0,11.31,0-6,5.58-10.94,10.29-16,14.94Q849.61,162.1,827,182.93c-3,2.74-5.93,5.51-9,8.09-1.68,1.39-2,2.14-.13,3.83Q845,219.65,872,244.65c5.06,4.66,10.08,9.35,16.05,14.89-7.06-.26-12.81,1.9-18.39-3.4-19.38-18.47-39.22-36.45-58.84-54.66-1.86-1.72-3.07-1-4.59.41q-21.94,20.3-44,40.53c-5.76,5.31-11.58,10.56-17.26,16a4.08,4.08,0,0,1-2.9,1.36c-3.91,0-7.82,0-12.42,0,2.95-4.28,6.54-6.88,9.72-9.83q22.2-20.62,44.57-41c4.78-4.39,9.53-8.83,14.48-13,2.63-2.23,2.21-3.82-.07-5.9q-33.06-30.12-66-60.33C731.61,128.9,730.94,128.05,729.36,126.33Z"/><path class="cls-2" d="M132.73,192.93c-1.23-36.57,31.65-66.88,66.46-66.78,35.91.09,67.13,29.79,67,67.06-.1,37.67-31.18,66.57-67.61,66.63S131.61,228.6,132.73,192.93Zm122.93.7c1.18-30-24.83-56.94-56.43-57-29.51-.06-56.54,25.47-56.33,56.59.21,30.29,25.54,56,56.13,56.19C231.25,249.56,256.38,222.34,255.66,193.63Z"/><path class="cls-2" d="M590.36,192.93c-1.23-36.57,31.65-66.88,66.46-66.78,35.91.09,67.13,29.79,67,67.06-.1,37.67-31.18,66.57-67.61,66.63S589.24,228.6,590.36,192.93Zm122.93.7c1.18-30-24.83-56.94-56.43-57-29.51-.06-56.54,25.47-56.33,56.59.21,30.29,25.54,56,56.13,56.19C688.88,249.56,714,222.34,713.29,193.63Z"/><path class="cls-2" d="M415.09,406.51A31.33,31.33,0,0,1,392,396.58a33.5,33.5,0,0,1-6.75-10.66A34.6,34.6,0,0,1,382.78,373a33.52,33.52,0,0,1,4.15-16.47,32,32,0,0,1,11.45-12A31.06,31.06,0,0,1,415,340a30.27,30.27,0,0,1,16.65,4.55,32.56,32.56,0,0,1,11.2,12,33.28,33.28,0,0,1,4.09,16.29v1.9a6.17,6.17,0,0,1-.13,1.41H391.57a27.84,27.84,0,0,0,3.91,12.26,24.87,24.87,0,0,0,8.53,8.5,22,22,0,0,0,11.46,3.13,23.77,23.77,0,0,0,11.94-3.21,17.78,17.78,0,0,0,7.86-8.42l7.31,2a24.29,24.29,0,0,1-6.07,8.29,29,29,0,0,1-9.59,5.76A33.84,33.84,0,0,1,415.09,406.51Zm-23.76-36.39H439a26.4,26.4,0,0,0-3.77-12.25,24,24,0,0,0-8.54-8.27,23,23,0,0,0-11.58-3,22.62,22.62,0,0,0-11.51,3,23.89,23.89,0,0,0-8.48,8.33A26.37,26.37,0,0,0,391.33,370.12Z"/><path class="cls-2" d="M468.67,314.91h8.42v76.2q0,4.86,1.73,6.36A6.25,6.25,0,0,0,483,399a19.78,19.78,0,0,0,4.45-.5c1.49-.32,2.77-.66,3.84-1l1.49,6.8a27.1,27.1,0,0,1-5.76,1.61,32.88,32.88,0,0,1-5.88.62,12.35,12.35,0,0,1-9.09-3.36q-3.42-3.36-3.41-9.21Z"/><path class="cls-2" d="M513.38,314.91h8.42v76.2q0,4.86,1.73,6.36a6.26,6.26,0,0,0,4.21,1.49,19.93,19.93,0,0,0,4.46-.5c1.48-.32,2.76-.66,3.83-1l1.49,6.8a27.1,27.1,0,0,1-5.76,1.61,32.7,32.7,0,0,1-5.88.62,12.36,12.36,0,0,1-9.09-3.36q-3.4-3.36-3.41-9.21Z"/><path class="cls-2" d="M613.16,405.27h-8.42V369.48q0-11.31-3.34-16.54t-10.52-5.23a21.77,21.77,0,0,0-9.78,2.4,27.6,27.6,0,0,0-8.48,6.51,24.79,24.79,0,0,0-5.26,9.39v39.26h-8.42V341h7.68v14.64a28.7,28.7,0,0,1,6.81-8.19A32.47,32.47,0,0,1,583,342a31.7,31.7,0,0,1,11-2,19.23,19.23,0,0,1,9,2,15.25,15.25,0,0,1,5.94,5.61,26,26,0,0,1,3.22,8.73,60.17,60.17,0,0,1,1,11.39Z"/><path class="cls-2" d="M668.08,406.51a31.37,31.37,0,0,1-23.15-9.93,33.48,33.48,0,0,1-6.74-10.66A34.4,34.4,0,0,1,635.77,373a33.41,33.41,0,0,1,4.15-16.47,32,32,0,0,1,11.45-12A31,31,0,0,1,668,340a30.3,30.3,0,0,1,16.66,4.55,32.73,32.73,0,0,1,11.2,12,33.27,33.27,0,0,1,4.08,16.29v1.9a6.28,6.28,0,0,1-.12,1.41H644.56a27.83,27.83,0,0,0,3.9,12.26,24.81,24.81,0,0,0,8.54,8.5,21.93,21.93,0,0,0,11.45,3.13,23.72,23.72,0,0,0,11.94-3.21,17.8,17.8,0,0,0,7.87-8.42l7.3,2a24,24,0,0,1-6.07,8.29,29,29,0,0,1-9.59,5.76A33.79,33.79,0,0,1,668.08,406.51Zm-23.77-36.39H692a26.29,26.29,0,0,0-3.78-12.25,23.81,23.81,0,0,0-8.54-8.27,23,23,0,0,0-11.57-3,22.59,22.59,0,0,0-11.51,3,23.81,23.81,0,0,0-8.48,8.33A26.49,26.49,0,0,0,644.31,370.12Z"/><path class="cls-2" d="M739.89,406.51a40.73,40.73,0,0,1-14.73-2.6A31,31,0,0,1,713.39,396l3.47-5.94a37.33,37.33,0,0,0,11,7.36,30.1,30.1,0,0,0,11.7,2.29q7.54,0,12.25-3a9.64,9.64,0,0,0,4.7-8.64,7.39,7.39,0,0,0-2.29-5.85,17.4,17.4,0,0,0-6.56-3.33q-4.27-1.29-10.21-2.77a78,78,0,0,1-11.2-3.87,16.56,16.56,0,0,1-6.81-5.17,13.55,13.55,0,0,1-2.29-8.19,16.65,16.65,0,0,1,3.15-10.4,19.68,19.68,0,0,1,8.67-6.28A33.7,33.7,0,0,1,741.25,340a34.13,34.13,0,0,1,13.12,2.35,24.07,24.07,0,0,1,9.28,6.56l-4.08,5.69a21.45,21.45,0,0,0-8.23-5.88,28.12,28.12,0,0,0-10.59-1.91,27.16,27.16,0,0,0-7.55,1,13,13,0,0,0-5.88,3.45,9.15,9.15,0,0,0-2.29,6.58,7.66,7.66,0,0,0,1.74,5.35,13,13,0,0,0,5.2,3.2q3.45,1.29,8.54,2.76,7.29,2,12.75,4a21.6,21.6,0,0,1,8.41,5.23q3,3.21,3,9,0,9-6.81,14T739.89,406.51Z"/><path class="cls-2" d="M811.08,406.51a40.83,40.83,0,0,1-14.74-2.6A31,31,0,0,1,784.58,396l3.47-5.94a37.33,37.33,0,0,0,11,7.36,30.1,30.1,0,0,0,11.7,2.29q7.54,0,12.25-3a9.64,9.64,0,0,0,4.7-8.64,7.39,7.39,0,0,0-2.29-5.85,17.4,17.4,0,0,0-6.56-3.33q-4.27-1.29-10.21-2.77a78,78,0,0,1-11.2-3.87,16.56,16.56,0,0,1-6.81-5.17,13.55,13.55,0,0,1-2.29-8.19,16.65,16.65,0,0,1,3.15-10.4,19.68,19.68,0,0,1,8.67-6.28A33.7,33.7,0,0,1,812.44,340a34.13,34.13,0,0,1,13.12,2.35,24.07,24.07,0,0,1,9.28,6.56l-4.08,5.69a21.6,21.6,0,0,0-8.23-5.88,28.12,28.12,0,0,0-10.59-1.91,27.16,27.16,0,0,0-7.55,1,13,13,0,0,0-5.88,3.45,9.1,9.1,0,0,0-2.29,6.58,7.66,7.66,0,0,0,1.74,5.35,13,13,0,0,0,5.19,3.2q3.47,1.29,8.55,2.76,7.29,2,12.75,4a21.6,21.6,0,0,1,8.41,5.23q3,3.21,3,9,0,9-6.81,14T811.08,406.51Z"/><path class="cls-2" d="M251.94,312.42a38.71,38.71,0,0,1,8.64-7.28c12.69-7.82,28.91-7.16,40.07,1.89,9.54,7.72,13.49,17.93,12.48,30.08-.72,8.73-4.46,16.3-9.34,23.39a112.65,112.65,0,0,1-15.09,17.66c-11.47,10.92-23.13,21.64-34.71,32.45-.67.62-1.36,1.23-2.12,1.92-2-1.77-3.92-3.49-5.83-5.28-10.44-9.76-21-19.42-31.26-29.36a104.23,104.23,0,0,1-17.59-21.7c-4.32-7.26-6.88-15-6.78-23.57.19-16.27,12.81-30.57,28.9-32.52,12.61-1.52,23.2,2.58,31.92,11.71.14.15.28.31.43.45A.94.94,0,0,0,251.94,312.42Zm-.14,83.32a1.46,1.46,0,0,0,.31-.15c9.63-9,19.39-17.95,28.8-27.22A132.53,132.53,0,0,0,293,354.23c4.34-5.7,7.6-12,7.91-19.38.37-8.66-2.92-15.58-10.56-20-11.16-6.41-26.78-1.25-32.11,10.47-.21.45-1.76,4.14-5.86,4.31s-6.44-3.64-6.52-3.82a23.45,23.45,0,0,0-14.59-12.63c-10.56-3.48-21.82,1.11-26.36,10.75-3.1,6.56-2.66,13.19-.08,19.77s6.8,12.21,11.38,17.53a276.49,276.49,0,0,0,22.44,22.46C243,387.76,247.43,391.75,251.8,395.74Z"/><path class="cls-2" d="M306.32,312.42a38.71,38.71,0,0,1,8.64-7.28C327.65,297.32,343.87,298,355,307c9.54,7.72,13.48,17.93,12.47,30.08-.72,8.73-4.45,16.3-9.34,23.39a112.12,112.12,0,0,1-15.09,17.66c-11.47,10.92-23.12,21.64-34.71,32.45-.67.62-1.35,1.23-2.12,1.92-2-1.77-3.92-3.49-5.83-5.28-10.44-9.76-21-19.42-31.26-29.36a104.55,104.55,0,0,1-17.59-21.7c-4.32-7.26-6.88-15-6.78-23.57.19-16.27,12.82-30.57,28.9-32.52,12.61-1.52,23.2,2.58,31.92,11.71.14.15.28.31.43.45A1.09,1.09,0,0,0,306.32,312.42Zm-.13,83.32a2.27,2.27,0,0,0,.31-.15c9.62-9,19.39-17.95,28.79-27.22a132.63,132.63,0,0,0,12.09-14.14c4.33-5.7,7.59-12,7.91-19.38.36-8.66-2.92-15.58-10.57-20-11.16-6.41-26.77-1.25-32.11,10.47-.21.45-1.76,4.14-5.86,4.31s-6.43-3.64-6.52-3.82a23.45,23.45,0,0,0-14.59-12.63c-10.55-3.48-21.82,1.11-26.36,10.75-3.09,6.56-2.66,13.19-.08,19.77s6.8,12.21,11.39,17.53c6.92,8,14.65,15.28,22.43,22.46C297.4,387.76,301.81,391.75,306.19,395.74Z"/></svg>