<?xml version="1.0" encoding="utf-8"?>
<!-- Generator: Adobe Illustrator 25.2.3, SVG Export Plug-In . SVG Version: 6.00 Build 0)  -->
<svg version="1.1" id="Layer_1" xmlns="http://www.w3.org/2000/svg" xmlns:xlink="http://www.w3.org/1999/xlink" x="0px" y="0px"
	 viewBox="0 0 1020.9 538.7" style="enable-background:new 0 0 1020.9 538.7;" xml:space="preserve">
<style type="text/css">
	.st0{fill:none;}
	.st1{fill:#FFFFFF;}
</style>
<rect y="0" class="st0" width="1020.9" height="538.7"/>
<g>
	<path class="st1" d="M428.9,126.7c1.7-0.1,3.4-0.4,5-0.4c34.8,0,69.5,0,104.3,0c14.5,0,24.5,7.7,30.7,19.6
		c7.4,14.1,4.8,33.4-10.1,44.2c-3.2,2.3-3,3.5,0.1,6c12.5,10,16.1,21.8,12.3,37.9c-3.2,13.4-13.1,20.9-25.5,25.3
		c-1.5,0.4-3.1,0.5-4.6,0.4c-33.1,0.1-66.2,0.1-99.2,0.2c-2.5,0-3-1-3-3.1c0.1-0.8,0.1-1.7,0-2.5c-0.5-3.5,0.9-4.5,4.4-4.5
		c30,0.1,60,0.1,90,0c4.2,0,8.4,0.5,12.5-1.1c9-3.7,15-10.1,16.6-19.7c2-12-2.6-21.6-12.9-27.9c-4-2.4-8.8-3.2-13.7-3.2
		c-30.7,0.1-61.4,0.1-92.1,0c-1.5,0-4.4,0.4-4.5-1c-0.1-2.7-0.9-5.7,0.2-8.3c0.3-0.9,2.5-0.6,3.9-0.6c30.5,0,61.1-0.3,91.6,0.1
		c13,0.2,22.9-7,27.2-18.8c3-8.2-1.4-21.9-8.7-27.6c-4.9-3.8-10.9-5.8-17.1-5.6c-32.1,0.1-64.2-0.1-96.3,0.2c-4.6,0-7.2-1.2-8.8-5.4
		C430.7,129.4,429.9,128,428.9,126.7z"/>
	<path class="st1" d="M428.9,126.7c0.4,0.3,0.4,0.7,0.1,1.1c-10.9,10.2-21.9,20.5-32.8,30.7c-14.1,13.1-28.3,26.2-42.5,39.2
		c-13.8,12.6-27.9,24.8-41.2,38c-3.4,3.4-7.2,6.5-10.8,9.8c-0.9,0.8-2.4,1.5-1.8,2.9c0.5,1.1,2,0.6,3.1,0.6
		c10.9,0.1,21.7,0.1,32.6,0.1h76.1c5.7,0,6.8-0.1,6.1,9.3c-0.4,0.9-1.3,1.5-2.3,1.4c-1.2,0.1-2.5,0.1-3.8,0.1c-45,0-90,0-135,0
		c-1.5,0-5.9,0.3-5-1c21.6-20.7,43.8-40.4,65.6-60.5s43.7-40.3,65.9-60.9c-2.2-0.6-4.5-0.9-6.7-0.9c-35.4,0-70.8,0-106.2,0
		c-5.6,0-6.5-0.1-5.9-9.1c0.6-1.4,1.7-1.3,2.8-1.3c2.6,0,5.3,0,7.9,0c42.9,0,85.8,0,128.8,0C425.6,126.3,427.2,126.6,428.9,126.7z"
		/>
	<path class="st1" d="M729.4,126.3c5.1,0,9.3-0.4,13.4,0.1c1.4,0.2,4.7,3.6,6.8,5.6c18.8,17.1,37.4,34.3,56.1,51.5
		c1.9,1.8,3.4,2.5,5.9,0.2c16.2-15.3,32.6-30.3,49-45.5c3.7-3.4,7.4-6.7,11.1-10c1.4-1.4,3.3-2.1,5.2-2c3.3,0.2,6.7,0,11.3,0
		c-6,5.6-10.9,10.3-16,14.9c-15,14-30.1,27.9-45.2,41.8c-3,2.7-5.9,5.5-9,8.1c-1.7,1.4-2,2.1-0.1,3.8C836,211.4,854,228,872,244.6
		c5.1,4.7,10.1,9.4,16,14.9c-7.1-0.3-12.8,1.9-18.4-3.4c-19.4-18.5-39.2-36.5-58.8-54.7c-1.9-1.7-3.1-1-4.6,0.4
		c-14.6,13.5-29.3,27-44,40.5c-5.8,5.3-11.6,10.6-17.3,16c-0.7,0.8-1.8,1.3-2.9,1.4c-3.9,0-7.8,0-12.4,0c3-4.3,6.5-6.9,9.7-9.8
		c14.8-13.7,29.7-27.4,44.6-41c4.8-4.4,9.5-8.8,14.5-13c2.6-2.2,2.2-3.8-0.1-5.9c-22-20.1-44-40.2-66-60.3
		C731.6,128.9,730.9,128,729.4,126.3z"/>
	<path class="st1" d="M132.7,192.9c-1.2-36.6,31.6-66.9,66.5-66.8c35.9,0.1,67.1,29.8,67,67.1c-0.1,37.7-31.2,66.6-67.6,66.6
		S131.6,228.6,132.7,192.9z M255.7,193.6c1.2-30-24.8-56.9-56.4-57c-29.5-0.1-56.5,25.5-56.3,56.6c0.2,30.3,25.5,56,56.1,56.2
		C231.2,249.6,256.4,222.3,255.7,193.6L255.7,193.6z"/>
	<path class="st1" d="M590.4,192.9c-1.2-36.6,31.7-66.9,66.5-66.8c35.9,0.1,67.1,29.8,67,67.1c-0.1,37.7-31.2,66.6-67.6,66.6
		S589.2,228.6,590.4,192.9z M713.3,193.6c1.2-30-24.8-56.9-56.4-57c-29.5-0.1-56.5,25.5-56.3,56.6c0.2,30.3,25.5,56,56.1,56.2
		C688.9,249.6,714,222.3,713.3,193.6L713.3,193.6z"/>
	<path class="st1" d="M415.1,406.5c-8.7,0.1-17.1-3.5-23.1-9.9c-2.9-3.1-5.2-6.7-6.8-10.7c-1.6-4.1-2.5-8.5-2.5-12.9
		c-0.1-5.8,1.4-11.4,4.1-16.5c2.7-4.9,6.6-9.1,11.5-12c5-3,10.8-4.6,16.6-4.5c5.9-0.1,11.7,1.4,16.6,4.5c4.7,3,8.6,7.1,11.2,12
		c2.7,5,4.1,10.6,4.1,16.3v1.9c0,0.5,0,0.9-0.1,1.4h-55.2c0.3,4.3,1.7,8.5,3.9,12.3c2.1,3.5,5,6.4,8.5,8.5c3.5,2.1,7.4,3.2,11.5,3.1
		c4.2,0,8.3-1.1,11.9-3.2c3.5-1.9,6.2-4.8,7.9-8.4l7.3,2c-1.4,3.2-3.5,6-6.1,8.3c-2.8,2.5-6,4.5-9.6,5.8
		C423.1,405.8,419.1,406.5,415.1,406.5z M391.3,370.1H439c-0.2-4.3-1.5-8.5-3.8-12.2c-2.1-3.4-5-6.3-8.5-8.3c-3.5-2-7.5-3-11.6-3
		c-4,0-8,1-11.5,3c-3.5,2-6.4,4.9-8.5,8.3C392.9,361.6,391.6,365.8,391.3,370.1z"/>
	<path class="st1" d="M468.7,314.9h8.4v76.2c0,3.2,0.6,5.4,1.7,6.4c1.2,1,2.6,1.6,4.2,1.5c1.5,0,3-0.2,4.5-0.5
		c1.5-0.3,2.8-0.7,3.8-1l1.5,6.8c-1.9,0.7-3.8,1.3-5.8,1.6c-1.9,0.4-3.9,0.6-5.9,0.6c-3.4,0.2-6.6-1-9.1-3.4
		c-2.3-2.2-3.4-5.3-3.4-9.2L468.7,314.9z"/>
	<path class="st1" d="M513.4,314.9h8.4v76.2c0,3.2,0.6,5.4,1.7,6.4c1.2,1,2.7,1.5,4.2,1.5c1.5,0,3-0.2,4.5-0.5
		c1.5-0.3,2.8-0.7,3.8-1l1.5,6.8c-1.9,0.7-3.8,1.3-5.8,1.6c-1.9,0.4-3.9,0.6-5.9,0.6c-3.4,0.2-6.6-1-9.1-3.4
		c-2.3-2.2-3.4-5.3-3.4-9.2V314.9z"/>
	<path class="st1" d="M613.2,405.3h-8.4v-35.8c0-7.5-1.1-13.1-3.3-16.5s-5.7-5.2-10.5-5.2c-3.4,0-6.8,0.8-9.8,2.4
		c-3.2,1.6-6.1,3.8-8.5,6.5c-2.4,2.7-4.2,5.9-5.3,9.4v39.3h-8.4V341h7.7v14.6c1.7-3.1,4-5.9,6.8-8.2c2.9-2.3,6.1-4.2,9.6-5.5
		c3.5-1.3,7.2-2,11-2c3.1-0.1,6.2,0.6,9,2c2.5,1.3,4.5,3.2,5.9,5.6c1.6,2.7,2.7,5.7,3.2,8.7c0.7,3.8,1,7.6,1,11.4V405.3z"/>
	<path class="st1" d="M668.1,406.5c-8.8,0.1-17.2-3.5-23.2-9.9c-2.9-3.1-5.2-6.7-6.7-10.7c-1.6-4.1-2.5-8.5-2.4-12.9
		c-0.1-5.8,1.4-11.4,4.2-16.5c2.7-4.9,6.6-9.1,11.5-12c5-3.1,10.8-4.6,16.6-4.5c5.9-0.1,11.7,1.4,16.7,4.5c4.7,3,8.5,7.1,11.2,12
		c2.7,5,4.1,10.6,4.1,16.3v1.9c0,0.5,0,0.9-0.1,1.4h-55.3c0.3,4.3,1.7,8.5,3.9,12.3c2.1,3.5,5,6.4,8.5,8.5c3.5,2.1,7.4,3.2,11.5,3.1
		c4.2,0,8.3-1.1,11.9-3.2c3.5-1.9,6.3-4.8,7.9-8.4l7.3,2c-1.4,3.2-3.5,6-6.1,8.3c-2.8,2.5-6,4.5-9.6,5.8
		C676.1,405.8,672.1,406.5,668.1,406.5z M644.3,370.1H692c-0.2-4.3-1.5-8.5-3.8-12.2c-2.1-3.4-5-6.3-8.5-8.3c-3.5-2-7.5-3-11.6-3
		c-4,0-8,1-11.5,3c-3.5,2-6.4,4.9-8.5,8.3C645.9,361.6,644.6,365.8,644.3,370.1z"/>
	<path class="st1" d="M739.9,406.5c-5,0.1-10-0.8-14.7-2.6c-4.5-1.7-8.5-4.4-11.8-7.9l3.5-5.9c3.2,3.1,6.9,5.6,11,7.4
		c3.7,1.5,7.7,2.3,11.7,2.3c5,0,9.1-1,12.2-3c3-1.8,4.8-5.1,4.7-8.6c0.1-2.2-0.7-4.3-2.3-5.9c-1.9-1.6-4.2-2.7-6.6-3.3
		c-2.8-0.9-6.3-1.8-10.2-2.8c-3.8-1-7.6-2.3-11.2-3.9c-2.7-1.1-5-2.9-6.8-5.2c-1.6-2.4-2.4-5.3-2.3-8.2c-0.1-3.7,1-7.4,3.2-10.4
		c2.3-2.9,5.3-5,8.7-6.3c3.9-1.5,8.1-2.2,12.3-2.2c4.5-0.1,8.9,0.7,13.1,2.4c3.6,1.4,6.8,3.7,9.3,6.6l-4.1,5.7
		c-2.2-2.6-5.1-4.6-8.2-5.9c-3.4-1.3-7-2-10.6-1.9c-2.6,0-5.1,0.3-7.5,1c-2.2,0.6-4.3,1.8-5.9,3.5c-1.6,1.8-2.4,4.2-2.3,6.6
		c-0.1,1.9,0.5,3.9,1.7,5.4c1.5,1.5,3.2,2.6,5.2,3.2c2.3,0.9,5.1,1.8,8.5,2.8c4.9,1.3,9.1,2.7,12.8,4c3.2,1.1,6,2.9,8.4,5.2
		c2,2.1,3,5.1,3,9c0,6-2.3,10.7-6.8,14C753.3,404.7,747.3,406.4,739.9,406.5z"/>
	<path class="st1" d="M811.1,406.5c-5,0-10-0.8-14.7-2.6c-4.5-1.7-8.5-4.4-11.8-7.9l3.5-5.9c3.2,3.1,6.9,5.6,11,7.4
		c3.7,1.5,7.7,2.3,11.7,2.3c5,0,9.1-1,12.2-3c3-1.8,4.8-5.1,4.7-8.6c0.1-2.2-0.7-4.3-2.3-5.9c-1.9-1.6-4.2-2.7-6.6-3.3
		c-2.8-0.9-6.2-1.8-10.2-2.8c-3.8-1-7.6-2.3-11.2-3.9c-2.7-1.1-5-2.9-6.8-5.2c-1.6-2.4-2.4-5.3-2.3-8.2c-0.1-3.7,1-7.4,3.2-10.4
		c2.3-2.9,5.3-5,8.7-6.3c3.9-1.5,8.1-2.2,12.3-2.2c4.5-0.1,8.9,0.7,13.1,2.4c3.6,1.4,6.8,3.7,9.3,6.6l-4.1,5.7
		c-2.2-2.6-5.1-4.6-8.2-5.9c-3.4-1.3-7-2-10.6-1.9c-2.6,0-5.1,0.3-7.5,1c-2.2,0.6-4.3,1.8-5.9,3.5c-1.6,1.8-2.4,4.2-2.3,6.6
		c-0.1,1.9,0.5,3.9,1.7,5.4c1.5,1.5,3.2,2.6,5.2,3.2c2.3,0.9,5.2,1.8,8.5,2.8c4.9,1.3,9.1,2.7,12.8,4c3.2,1.1,6,2.9,8.4,5.2
		c2,2.1,3,5.1,3,9c0,6-2.3,10.7-6.8,14C824.5,404.7,818.5,406.4,811.1,406.5z"/>
	<path class="st1" d="M251.9,312.4c2.5-2.8,5.4-5.3,8.6-7.3c12.7-7.8,28.9-7.2,40.1,1.9c9.5,7.7,13.5,17.9,12.5,30.1
		c-0.7,8.7-4.5,16.3-9.3,23.4c-4.4,6.4-9.5,12.3-15.1,17.7c-11.5,10.9-23.1,21.6-34.7,32.5c-0.7,0.6-1.4,1.2-2.1,1.9
		c-2-1.8-3.9-3.5-5.8-5.3c-10.4-9.8-21-19.4-31.3-29.4c-6.8-6.4-12.7-13.7-17.6-21.7c-4.3-7.3-6.9-15-6.8-23.6
		c0.2-16.3,12.8-30.6,28.9-32.5c12.6-1.5,23.2,2.6,31.9,11.7c0.1,0.1,0.3,0.3,0.4,0.5C251.7,312.3,251.8,312.4,251.9,312.4z
		 M251.8,395.7c0.1,0,0.2-0.1,0.3-0.1c9.6-9,19.4-18,28.8-27.2c4.4-4.4,8.4-9.1,12.1-14.1c4.3-5.7,7.6-12,7.9-19.4
		c0.4-8.7-2.9-15.6-10.6-20c-11.2-6.4-26.8-1.2-32.1,10.5c-0.2,0.5-1.8,4.1-5.9,4.3s-6.4-3.6-6.5-3.8c-2.8-6.1-8.1-10.7-14.6-12.6
		c-10.6-3.5-21.8,1.1-26.4,10.8c-3.1,6.6-2.7,13.2-0.1,19.8s6.8,12.2,11.4,17.5c7,7.9,14.5,15.4,22.4,22.5
		C243,387.8,247.4,391.8,251.8,395.7L251.8,395.7z"/>
	<path class="st1" d="M306.3,312.4c2.5-2.8,5.4-5.3,8.6-7.3c12.7-7.8,28.9-7.1,40,1.9c9.5,7.7,13.5,17.9,12.5,30.1
		c-0.7,8.7-4.5,16.3-9.3,23.4c-4.4,6.4-9.5,12.3-15.1,17.7c-11.5,10.9-23.1,21.6-34.7,32.5c-0.7,0.6-1.4,1.2-2.1,1.9
		c-2-1.8-3.9-3.5-5.8-5.3c-10.4-9.8-21-19.4-31.3-29.4c-6.8-6.4-12.7-13.7-17.6-21.7c-4.3-7.3-6.9-15-6.8-23.6
		c0.2-16.3,12.8-30.6,28.9-32.5c12.6-1.5,23.2,2.6,31.9,11.7c0.1,0.1,0.3,0.3,0.4,0.5C306.1,312.3,306.2,312.4,306.3,312.4z
		 M306.2,395.7c0.1,0,0.2-0.1,0.3-0.1c9.6-9,19.4-18,28.8-27.2c4.4-4.4,8.4-9.1,12.1-14.1c4.3-5.7,7.6-12,7.9-19.4
		c0.4-8.7-2.9-15.6-10.6-20c-11.2-6.4-26.8-1.2-32.1,10.5c-0.2,0.5-1.8,4.1-5.9,4.3s-6.4-3.6-6.5-3.8c-2.8-6.1-8.1-10.7-14.6-12.6
		c-10.5-3.5-21.8,1.1-26.4,10.8c-3.1,6.6-2.7,13.2-0.1,19.8s6.8,12.2,11.4,17.5c6.9,8,14.6,15.3,22.4,22.5
		C297.4,387.8,301.8,391.8,306.2,395.7L306.2,395.7z"/>
</g>
</svg>
